<svg id="Layer_1" data-name="Layer 1" xmlns="http://www.w3.org/2000/svg" viewBox="0 0 389 498"><defs><style>.cls-1,.cls-2{fill:#fff;}.cls-1{fill-rule:evenodd;}</style></defs><title>Artboard 1</title><g id="Page-1"><g id="Artboard-1"><g id="Group"><path id="Fill-1" class="cls-1" d="M190.32,161s.42-5.33-.85-7.24-6-9.81-6.61-11.3-7.25-12.58-9.59-14.92-9.17-7.46-10.88-7.68c-.86-.1-4.63-11-14.19-10.75-2.45.06,1.34,3,2.26,5,1.25,2.75,1.81,4.77,1.36,4.73-2.52-.23-4.64-.42-5.2-.42-.39,0-1,0-1.79.08-2.79-2.77-8.63-8.49-9.82-9.2-1.57-.94-14.45-14.77-14.45-14.77l-3.77.63a9.56,9.56,0,0,0-.63,6.28c.64,2.14,3.5,6.28,5.26,8.7a1.52,1.52,0,0,0,0,.82c1.29,3.23,3.17,4.27,3.79,8.33-.21-.14-.48-.33-.77-.56a17.45,17.45,0,0,1-3.3-2.83c-1.57-2.2-8.49-7.23-8.17-6.92s-.63,4.09-.63,7.54c0,3,3.26,10.89,4.39,13.4-1,.93-2,1.89-3,2.84l-2.94-2.41-1.19,8c-1.91,2-2.59,3.55-4.1,5.89-1.1-1.4-4.47-3.67-6.94-6.84C88.35,125.88,84.51,111.1,80,98.49,77.75,92,70.71,86.14,67.4,83.54S66,85.9,66,85.9s3.11,5.81,5.47,8.17c6.27,7.42,7.49,28,14.06,39.66,3.5,6.21,13.64,16.08,15.63,18.12a21.69,21.69,0,0,0-1.08,2.52C88.63,144,82.16,143,79.45,142.51c-4.31-.72-7.2.23-3.33,1.51C89.23,148.36,96.49,162.63,97.5,169c-.55,13.06-2.38,14.35-4,18.48S82.63,203.2,81.53,211.94,82,230.3,82.21,235s2.34,17.9,1.49,24.72-2.32,12.78-3,16.62-1.8,10.07-2.25,12c-1.08,4.73-4.85,7.15-6.33,12.81s-12.62,29.34-13,31.36c-4.79,12.49-12.06,4.82-18.82,8.1-5.15.67-7.63,10.15-7.63,12.57s1.58,3.64,6.44,3.64H66.31s4.24-1.73,8.27-7.69c2.43-3.64,5.26-11.32,6.07-13.75s4-12.54,7.28-16.58,9.3-8.49,9.3-8.49a32.21,32.21,0,0,1,2.43,7.28c.8,4,4,14.55,6.47,16.17s6.06,4.05,9.7,4.45,9.3,0,9.71-2,.8-6.88.8-6.88a58.37,58.37,0,0,1-5.66-10.51c-2-5.26-5.66-10.11-4-15.37s2.51-6.78,4-7.55,8.37-.07,12.94-.13c5.26-.4,21.44-4.45,24.27-7.28s11.72-3.64,15.36-12.13,15.37-26.29,18.2-27.09,15-2.43,17.79-1.22,11.32,7.28,17.79,15,14.16,17.8,21,21,17.8,12.94,26.69,17,17.79,7.28,20.22,11.72c4.2,7.71,9.49,32.55-4.28,30.92-7.88-.93-24.26-3.06-22.81,13.24l51.35-.08s6.07-8.9,7.69-12.53a32.75,32.75,0,0,0,2-8.9l4,1.62a35.34,35.34,0,0,0,9.3,10.51c6.07,4.45,13.35,7.68,18.61,7.68s13.74,1.62,15.77-1.21,5.25-6.87,6.06-9.7,2.43-8.09.41-10.11-1.62-2.83-5.67-2.83-6.87,0-8.89,3.63-4.45,8.09-4.45,8.09-5.26,5.26-10.92-.81-15.36-19.81-17.79-27.09-10.11-33.16-10.11-33.16-9.71-28.31-15.77-37.61S299,227.86,295.78,226.65a32.21,32.21,0,0,0-11.73-2c-4.85,0-7.68.4-11.32-3.24s-9.3-11.32-12.94-13.34c-2.75-1.53-8-1.9-10.46-2-.13-.82-.26-1.72-.4-2.7-.56-3.89,1.66-2.77,4.44-3.89s7.77-4.44,13.88-10.55,7.78-9.44,10.56-14.44,1.11-5-.56-7.78-2.22.56-5,4.45-8.33,5-11.66,7.77-5.56,1.67-9.44,2.23-5-2.78-1.67-2.78,10-5,17.77-8.89,13.33-14.44,13.33-17.77.56-5,.56-8.89-2.78.56-5.55,3.89-7.78,5-10,7.78-8.33,6.66-12.78,8.88-11.11,0-11.11,0,7.23-5,10.56-6.11,17.77-13.88,21.66-19.44,2.22-3.88,4.44-7.77-1.11-10-1.11-10a21.27,21.27,0,0,0-5,4.44c-2.22,2.78-5.55,7.22-11.11,10.56a44,44,0,0,1-9.44,4.44s-4.44,1.67-4.44-2.22,10.55-8.33,16.66-11.67,7.22-8.33,7.78-14.44.55-7.77,0-11.66-1.11,0-3.89,3.33-7.22,6.67-11.66,10.55-14.45,8.89-20.55,13.89-11.67,14.44-13.89,20.55a94.91,94.91,0,0,0-3.89,14.44,146.74,146.74,0,0,1-4.44,16.66c-1.39,3.7-5.85,7.78-7.31,9.05l-.47-.14s-1.39,0-3.47-.07a19.17,19.17,0,0,0,1.25-5.5c.56-7.22,7.22-15.56,9.44-20s1.11-7.22,1.11-7.22a54.94,54.94,0,0,0-7.22,7.78c-2.77,3.88-6.11,10-8.88,13.33s-6.11,6.11-8.33,11.66l-.05.12-.8,0c.53-.32.66-.57.29-.73-3.55-1.52-3.86-10-3.88-11.44a45,45,0,0,0,3.15-5.77ZM102.38,285.6s1.41-9.85,5.06-12.94,6.76-6.47,11.26-7.88,7.88-3.1,12.66-.56,4.78,5.62,4.78,5.62a22.43,22.43,0,0,1-7,7.6c-4.5,2.81-12.38,2.81-14.91,4.78s-5.35,5.07-8.44,5.35S102.38,285.6,102.38,285.6Zm180.15-43.78c-1.39,1.74-1,8.34,3.12,16.67s4.86,11.45,8.33,16,8.33,8.68,9,10.42,2.43,5.55,2.43,5.55,6.94,2.09,9.72,3.82,4.86,4.17,4.51,1.74-5.55-16.32-7.64-21.18-7.63-16.66-11.1-22.21-4.52-9.38-9-11.11S283.92,240.09,282.53,241.82ZM276.14,94c18.61-20.31,26.12-35.3,27.77-63.32A112.19,112.19,0,0,1,306.13,14l2.22-3.34s3.89,3.89,3.89,7.78a149.21,149.21,0,0,1-10.55,53.87C296.93,84.44,276,113.37,276,113.37,278.1,105.14,279.27,97.23,276.14,94Zm5.55,21.1C300.3,95.8,308.75,67.79,315,42.29c2.82-11.46,8.54-31.78,20.55-37.21l3.33,1.67s-6.11,5.55-7.77,10S324.46,34,322.24,45.07c-3.57,17.86-10.32,42.6-18.88,58.87-5.56,10.56-20.56,28.88-20.56,28.88A24.54,24.54,0,0,0,281.69,115.05Zm2.78,22.22c-1.11.55,11.76-11.93,14.44-16.11,13.13-20.45,12.15-26.62,17.78-42.77a40.45,40.45,0,0,1,13.88-18.88l5-1.11.55,3.52c-10.9,11-14.95,23-18.35,35-3.15,11.14-11.42,38.78-25.16,51.51l-8.35,7.73C286.42,151,289.32,143.1,284.47,137.27Zm-2.22,27.21c-3.59,1.55,10.84-9.09,13.88-12.77,16.82-20.28,13.8-28.1,23.33-40.57,7.22-9.44,10.56-12.2,10.56-12.2,2.57-.21,3.88,2.21,2.77,3.34C313.71,121.81,317.35,129,311.13,145c-3.88,10-19.81,27.44-29.44,34.44C283.62,178.71,285.84,162.94,282.25,164.48Zm-6.47,24.44c12.51-2.39,22.74-16.21,34.8-24.44a61,61,0,0,1,11.1-5.55s-7.77,8.33-13.33,15c-12.91,15.49-25.61,28.32-47.21,28.32C264.38,200.89,275.59,192.41,275.78,188.92ZM103.89,138.31s-11.82-18.07-15.22-27.24C80.92,90.22,80.2,76,70.91,63.65c-2.58-3.43-8.81-14.93-8.81-14.93V46.14s7.4,7.49,9.74,10.31C90,78.36,94.12,116.33,108.49,124.17c-.72.82-4,4.12-4,4.12Zm3.47-19.61S95.24,96.48,92,89.17c-16.11-35.92-12-55-25.07-79.79A36.61,36.61,0,0,1,63.37.86s9.52,9,13.17,17c8.24,18,14.75,63.14,33.32,85.82l-2.81,2.78Zm3.47-20.08C93.7,71,86.21,39.83,86.31,9.66c0,0,1.25-.31,1.57,2.2,1.65,13.21,7,39.83,27,75.12l-3.43.93ZM35,351.29s5.52-5.45,10.55-4.14a16.25,16.25,0,0,0,11-1.52c2.69-1.53,10.82-17.06,12.36-22.81s11.75-26.3,11.75-26.3A17.11,17.11,0,0,0,85,290.45c1.92-4.22,4.31-11.37,6.23-15.21s6.52-19.18,6.52-23.79.39-11.89.39-11.89l10.74,8.82s28-23.4,29.93-24.55-1.92,5.75,0,11.51,5.75,8.82,5.75,11.89-.38,9.21-2.3,12.28-4.6,6.91-1.15,8.44,6.14,1.54,8.06-.77,6.14-5,6.52-7.67,3.07-9.21,6.52-10.36,4.22-1.15,9.59-2.69,4.22-1.53,6.53-5,1.91-5.37,6.13-5.37,9.21,0,13.43,1.91,3.46,4.61,8.44,3.84,10-1.92,13-3.45,9.59-.77,13.43,1.92,9.21,10.74,13.81,13,11.13,5.76,14.2,7.68,9.59,3.06,14.19,8.82,6.91,6.52,10.36,10S295.7,286,295.7,286s-1.92-8.82-4.6-12.27-10.36-15-10.75-18.42-3.83-10-2.3-14.58,2.3-6.14,5.76-5.76,8.82,2.69,12.27,5.38,7.68,8.44,8.83,6.13,1.77-3.79,1.19-4.57l-1.24-1.51-1-1.53-1-1.46L302,236l-.89-1.3-.86-1.19-.81-1.1-.77-1-.73-.87-.68-.74-.63-.61-.56-.47-.48-.32-.43-.2-1.11-.39-1.21-.37-1.26-.33-1.33-.28-1.4-.22-1.48-.17-1.59-.1-1.7,0-1.71,0h-1.62l-1.57-.08-1.55-.21-1.54-.42-1.53-.7-1.5-1-1.48-1.31L270,221l-1.62-1.83-1.69-2-1.72-2-1.71-1.88-1.62-1.66-1.47-1.31-1.23-.85-1.28-.55-1.64-.46-1.82-.33-1.84-.23-1.68-.14-.24,0,.71,2.15-2.56.22-1.07.07-1.56.07-1.86,0-2,0-2-.17-1.88-.36-1.58-.67L235.27,208l-1.54-1.56L232,204.52l-1.84-2.06-1.84-2.05-1.73-1.88L225.1,197l-1.09-.94-.49-.29-.86-.42-1.13-.48-1.35-.53-1.5-.55-1.61-.57-1.67-.56-1.68-.56-1.65-.53-1.58-.5-1.46-.45-1.29-.4-1.08-.32-.83-.25-.5-.15h-1.07l-.92,0-1.12,0h-.73c-.61,1.74-.67,3,1.34,5,3.88,3.88,5,5,10,5s10,3.89,11.67,6.67,2.22,2.78,2.22,2.78L192.83,210a9.38,9.38,0,0,1-5.56-5c-1.48-3.47-.32-10,1.53-15.35h0l-1.26.1-1.11.14-1.09.14-1.16.15-1.21.13-1.25.14-1.3.13-1.34.14-1.38.14-1.42.14-1.45.16-1.48.17-1.52.18-1.54.2-1.57.21-1.6.24-1.61.26-1.63.28-1.55.31-1.41.34-1.31.34-1.22.34-1.12.34-1.07.31-1,.28-1,.22-1,.15-1,.06-1-.06-1-.22-1-.39-.94-.55-.89-.72-.86-.85-.81-.93-.8-1-.78-1-.76-1-.73-1.09-.68-1.11-.63-1.14-.57-1.14-.49-1.15-.41-1.15-.31-1.15-.19-1.15-.05-1.15.11-1.14.31-1.11.53-1,1.17-1.52,1.35-1.37,1.5-1.22c10-6.48,17.92-.95,26.09,5.52l1.13.82c3.55,2.13,7.22,1,10.27-1.94l.67-.84.68-1,.65-1.06.59-1c2-3.69-1-5,1.49-10.7l1.84-2.21-.07-1.1-.13-1-.21-.83L187,155l-.57-.89-.87-1.41-1-1.67-1.06-1.8-11.7-19.08c-7.3-9.14-16.48-9.55-27.44-8.87l-1.15.07-1.08.08-.9.07-.63,0-1,.07-10.13-11-5.41,0,.71.93c2.7,3.36,3.36,7.16,2.76,12.36a6.12,6.12,0,0,1-1,2.66c-19.57,10.67-24.12,29.84-25.93,49.55A56.81,56.81,0,0,1,99,185.2C95.29,197.07,84.63,206,84.39,218.87c-.12,17.19,4.84,29.46-.32,52.19l-4.76,21c-5.7,9-8.48,19.38-12.56,29.21-3.15,7.54-9.59,25.12-18.46,21.3C40.8,342.33,38.35,343.82,35,351.29ZM165.81,139.76s5.66,13.51,6,15.08.32-6.91.32-6.91l2.51-.63-1.26-3.77-6-3.77ZM321.52,302.15c-1.18-.59,4.71,6.78,5.89,12.67s1.26,18.57,1.26,18.57c3.38-5.53,2.86-20.68-.23-24.92a25.73,25.73,0,0,0-6.92-6.32Z"/><polygon id="Fill-2" class="cls-1" points="1.29 365.5 383.85 365.5 383.85 370 1.29 370 1.29 365.5"/><path id="Fill-3" class="cls-1" d="M347.34,390.51v40.57h1.74a9.69,9.69,0,0,0,9.66-9.66V394.37a9.69,9.69,0,0,0-9.66-9.67H303.84a9.7,9.7,0,0,0-9.67,9.67v27.05a9.69,9.69,0,0,0,9.67,9.66h1.78V390.51Zm0,47.57v15.18H311.08c-3,0-5.46-1.76-5.46-3.9V438.08h-9.11A25.15,25.15,0,0,1,271.45,413V402.81a25.15,25.15,0,0,1,25.06-25.1h60a25.16,25.16,0,0,1,25.07,25.1V413a25.16,25.16,0,0,1-25.07,25.11ZM1.29,377.71H82.74c2.62,0,5.56,2.93,5.56,5.55v2.64H65.75v67.36H29.49c-3,0-5.45-1.76-5.45-3.9V385.9H6.85c-2.62,0-5.56-2.93-5.56-5.55Zm132.46,0c3.29,0,7.28,2,8.44,5.09l26.65,70.46H143.78c-4.26,0-9.1-3.16-10.61-7.14L109.9,384.61,96.09,420.28h12.85c4.13,0,8.91,2.91,10.37,6.77l9.93,26.21H83.32c-2.29,0-4.82-3.45-4-5.59l27.09-70Zm128.6,75.55h-1c-2.84,0-6.58-2.61-6.58-5.45V389.7l-34.66,57.84a12.19,12.19,0,0,1-9.8,5.72H183.71c-2.61,0-5.17-3.26-5.17-5.87V377.71h1c2.85,0,6.59,2.6,6.59,5.45v58L220,384.58c2.21-3.68,3.92-6.87,12.48-6.87h24c2.67,0,5.84,2.81,5.84,5.48Z"/><path id="ГРУППАКОМПАНИЙ" class="cls-2" d="M.49,497V467.71h17v5H5.37V497Zm23.76,0V467.47H32.1a24.16,24.16,0,0,1,5.74.42,6.52,6.52,0,0,1,3.56,2.93,10.73,10.73,0,0,1,1.4,5.76,10.92,10.92,0,0,1-1.21,5.36,7.1,7.1,0,0,1-3,3.05q-1.82.87-6.25.87h-3.2V497Zm4.87-24.53v8.38h2.7a11.52,11.52,0,0,0,3.69-.39,3.24,3.24,0,0,0,1.61-1.38,4.56,4.56,0,0,0,.62-2.44,4.51,4.51,0,0,0-.64-2.48,3.18,3.18,0,0,0-1.6-1.35,14.45,14.45,0,0,0-4-.34Zm27.64,16.19-8.9-21.19h5.48L59,482.8l4.87-15.33h5.06l-8.16,22.44a20.3,20.3,0,0,1-2.92,5.78,4.28,4.28,0,0,1-3.39,1.67A14.42,14.42,0,0,1,51,497v-4.41c.81.05,1.42.08,1.83.08a3.37,3.37,0,0,0,2.49-.75A8.25,8.25,0,0,0,56.76,488.66Zm23,8.34H74.91V467.47H94.25V497H89.4V472.45H79.79Zm27.92,0h-4.87V467.47h19.33V497h-4.85V472.45h-9.61Zm44.82,0h-5.31l-2.12-6.71h-9.67l-2,6.71h-5.2l9.43-29.53h5.18Zm-9-11.68-3.32-11-3.29,11ZM171.64,497V467.47h4.87V480a3,3,0,0,0,2.26-1.1,18.42,18.42,0,0,0,1.65-4.32,18,18,0,0,1,2.14-5,4.54,4.54,0,0,1,2.35-1.91,22.94,22.94,0,0,1,4.29-.48v4.43h-.68a3.38,3.38,0,0,0-2.81,1,12.18,12.18,0,0,0-1.51,3.69,17,17,0,0,1-1.33,3.65,6.52,6.52,0,0,1-1.78,1.79,5.87,5.87,0,0,1,2.63,2.16,29.6,29.6,0,0,1,2.44,5l3.31,8.08h-5.74l-2.93-7.63a20.59,20.59,0,0,0-1.9-4.08,2.8,2.8,0,0,0-2.39-1.2V497Zm23.11-14.58a21,21,0,0,1,1.56-8.69,11.71,11.71,0,0,1,4.08-5.09,10.81,10.81,0,0,1,6.1-1.67,10.45,10.45,0,0,1,8.47,4q3.27,4,3.27,11.3t-3.46,11.58a11.2,11.2,0,0,1-16.56,0Q194.75,489.69,194.75,482.42Zm5-.2q0,5.08,1.94,7.64a5.78,5.78,0,0,0,9.57,0c1.26-1.69,1.89-4.27,1.89-7.76s-.62-6-1.84-7.6a6,6,0,0,0-9.68,0Q199.79,477,199.78,482.22ZM225.49,497V467.47h7.31l4.39,20.14,4.35-20.14h7.34V497h-4.54V473.76L239.53,497h-4.71L230,473.76V497Zm36.69,0H257.3V467.47h19.34V497h-4.86V472.45h-9.6ZM307,497h-5.32l-2.11-6.71H289.9l-2,6.71h-5.19l9.42-29.53h5.18Zm-9-11.68-3.32-11-3.28,11ZM313.11,497V467.47H318v11.62h9.59V467.47h4.89V497h-4.89V484.09H318V497ZM341,497V467.47h4.65v19.68l9.79-19.68h4.9V497h-4.66V477.74L345.94,497Zm27.84,0V467.47h4.66v19.68l9.78-19.68h4.9V497h-4.65V477.74L373.79,497Zm12.67-37.36h2.26a6.84,6.84,0,0,1-1.6,4.34,4.87,4.87,0,0,1-7.07,0,6.85,6.85,0,0,1-1.62-4.34h2.25c.18,1.93,1.14,2.9,2.9,2.9S381.38,461.57,381.54,459.64Z"/></g></g></g></svg>