<?xml version="1.0" encoding="UTF-8"?>
<svg width="389px" height="498px" viewBox="0 0 389 498" version="1.1" xmlns="http://www.w3.org/2000/svg" xmlns:xlink="http://www.w3.org/1999/xlink">
    <!-- Generator: Sketch 56.2 (81672) - https://sketch.com -->
    <title>Group</title>
    <desc>Created with Sketch.</desc>
    <g id="Page-1" stroke="none" stroke-width="1" fill="none" fill-rule="evenodd">
        <g id="Artboard-1" transform="translate(-195.000000, -25.000000)">
            <g id="Group" transform="translate(195.491645, 25.862200)">
                <path d="M189.825955,160.1711 C189.825955,160.1711 190.252655,154.8425 188.973655,152.9243 C187.694955,151.0058 183.005255,143.1193 182.365755,141.6268 C181.726555,140.1349 175.118455,129.0509 172.774155,126.7067 C170.429355,124.3618 163.608355,119.2447 161.903355,119.0327 C161.039555,118.9261 157.270055,108.0442 147.708555,108.2812 C145.256555,108.3424 149.050755,111.2264 149.964355,113.2327 C151.215555,115.9804 151.777655,117.9989 151.327255,117.9575 C148.806955,117.7262 146.688955,117.5408 146.129955,117.5408 C145.740155,117.5408 145.092155,117.5723 144.342155,117.6154 C141.549155,114.8505 135.708355,109.1268 134.522655,108.4153 C132.950855,107.473 120.066755,93.6459 120.066755,93.6459 L116.295855,94.2741 C116.295855,94.2741 114.724855,97.4168 115.667655,100.5596 C116.309455,102.6992 119.170455,106.8344 120.929055,109.2532 C120.874355,109.5358 120.874355,109.821 120.978155,110.0806 C122.269555,113.3127 124.152955,114.3521 124.763455,118.4068 C124.554355,118.2628 124.292055,118.0729 124.002355,117.8456 C123.258355,117.2571 121.480955,116.1144 120.695455,115.0146 C119.124555,112.8149 112.211155,107.7871 112.525255,108.1012 C112.839255,108.4153 111.896155,112.1868 111.896155,115.6428 C111.896155,118.5967 115.158355,126.5318 116.285355,129.0333 C115.285555,129.9665 114.260055,130.926 113.268155,131.8765 L110.325255,129.4699 L109.135255,137.5041 C107.229255,139.5482 106.547455,141.0576 105.036955,143.4002 C103.942155,141.9933 100.564955,139.7282 98.0965546,136.5542 C87.8615546,125.0132 84.0202546,110.234 79.5511546,97.6266 C77.2616546,91.1659 70.2135546,85.278 66.9055546,82.6789 C63.5972546,80.0793 65.4876546,85.0419 65.4876546,85.0419 C65.4876546,85.0419 68.5958546,90.8473 70.9588546,93.2102 C77.2239546,100.6325 78.4445546,121.2168 85.0183546,132.87 C88.5183546,139.0756 98.6612546,148.9513 100.649755,150.9925 C100.260855,151.9668 99.8931546,152.3951 99.5640546,153.5045 C88.1367546,143.1502 81.6655546,142.0994 78.9539546,141.6478 C74.6446546,140.9303 71.7556546,141.8757 75.6311546,143.1584 C88.7408546,147.5013 95.9941546,161.7701 97.0069546,168.088 C96.4561546,181.1523 94.6323546,182.4332 92.9786546,186.5693 C91.2730546,190.8326 82.1343546,202.3415 81.0419546,211.0819 C79.9491546,219.8222 81.5022546,229.4396 81.7143546,234.1352 C81.9257546,238.8311 84.0585546,252.0402 83.2061546,258.8612 C82.3535546,265.682 80.8834546,271.6393 80.2442546,275.476 C79.6041546,279.3126 78.4510546,285.5486 78.0006546,287.5198 C76.9220546,292.2429 73.1465546,294.6693 71.6657546,300.3296 C70.2002546,305.9288 59.0439546,329.6676 58.6394546,331.6898 C53.8517546,344.181 46.5763546,336.5064 39.8207546,339.785 C34.6648546,340.4616 32.1839546,349.9333 32.1839546,352.3598 C32.1839546,354.7857 33.7730546,355.9989 38.6254546,355.9989 C43.4780546,355.9989 65.8227546,356.0028 65.8227546,356.0028 C65.8227546,356.0028 70.0556546,354.2811 74.0916546,348.3156 C76.5181546,344.6765 79.3485546,336.9931 80.1572546,334.5667 C80.9662546,332.1402 84.2014546,322.031 87.4363546,317.9874 C90.6714546,313.9432 96.7370546,309.4951 96.7370546,309.4951 C96.7370546,309.4951 98.3548546,312.73 99.1635546,316.7742 C99.9719546,320.8178 103.207155,331.3318 105.633655,332.949 C108.059455,334.5667 111.699455,336.9931 115.338555,337.3977 C118.978255,337.8019 124.639355,337.3977 125.043855,335.3754 C125.448355,333.3535 125.852555,328.5008 125.852555,328.5008 C125.852555,328.5008 122.212855,323.2443 120.191455,317.9874 C118.169255,312.73 114.529555,307.8777 116.147355,302.6208 C117.765055,297.364 118.657155,295.8355 120.189255,295.0696 C121.700655,294.3139 128.561955,294.9982 133.131655,294.9375 C138.388555,294.533 154.563855,290.4894 157.394255,287.6587 C160.224955,284.8277 169.120855,284.0187 172.760855,275.5273 C176.399955,267.0352 188.127455,249.2422 190.957555,248.4337 C193.788555,247.625 205.919955,246.0073 208.750655,247.2205 C211.581055,248.4337 220.073055,254.4996 226.543155,262.1826 C233.013255,269.8653 240.696555,279.9754 247.571155,283.2106 C254.445755,286.4452 265.363655,296.1507 274.260155,300.1943 C283.156655,304.2385 292.053255,307.4731 294.479155,311.921 C298.680055,319.623 303.965555,344.463 290.201955,342.8379 C282.322755,341.9079 265.943355,339.7779 267.385555,356.0817 L318.742255,355.9989 C318.742255,355.9989 324.807855,347.1023 326.425555,343.4632 C328.042755,339.8235 328.446955,334.5667 328.446955,334.5667 L332.491155,336.1841 C332.491155,336.1841 335.726055,342.25 341.791655,346.6978 C347.857255,351.1465 355.136055,354.3811 360.393455,354.3811 C365.650255,354.3811 374.142555,355.9989 376.163955,353.1679 C378.185955,350.3375 381.421355,346.2936 382.229555,343.4632 C383.038555,340.6323 384.656055,335.3754 382.634055,333.3535 C380.612655,331.3318 381.016855,330.5231 376.972655,330.5231 C372.929355,330.5231 370.098355,330.5231 368.076755,334.1622 C366.054755,337.8019 363.628355,342.25 363.628355,342.25 C363.628355,342.25 358.371455,347.5068 352.710155,341.441 C347.049055,335.3754 337.343455,321.6265 334.917055,314.3477 C332.491155,307.0686 324.807855,281.1886 324.807855,281.1886 C324.807855,281.1886 315.102555,252.8818 309.037055,243.5808 C302.971155,234.2803 298.523355,227.0015 295.287855,225.7883 C292.053255,224.5751 288.413555,223.7663 283.561255,223.7663 C278.708855,223.7663 275.877855,224.1706 272.238255,220.5314 C268.598855,216.8918 262.937755,209.2085 259.298055,207.1871 C256.550455,205.6595 251.265555,205.2856 248.841355,205.1929 C248.709755,204.3828 248.573455,203.4768 248.433455,202.5 C247.878155,198.612 250.099655,199.7229 252.876755,198.612 C255.653555,197.5008 260.652755,194.1687 266.762255,188.0589 C272.871455,181.9494 274.538255,178.617 277.314755,173.6181 C280.092155,168.6194 278.425955,168.6194 276.759455,165.8423 C275.093555,163.0655 274.538255,166.3977 271.760855,170.2857 C268.983455,174.1737 263.429555,175.2843 260.096855,178.0614 C256.764755,180.8388 254.542955,179.7276 250.654955,180.2834 C246.767455,180.8388 245.656355,177.5061 248.989055,177.5061 C252.321455,177.5061 258.986255,172.5074 266.762255,168.6194 C274.538255,164.7314 280.092155,154.1789 280.092155,150.8462 C280.092155,147.5135 280.647455,145.8476 280.647455,141.9596 C280.647455,138.0716 277.870055,142.5149 275.093555,145.8476 C272.316155,149.1803 267.317555,150.8462 265.096055,153.6236 C262.874255,156.4001 256.764755,160.2881 252.321455,162.5102 C247.878155,164.7314 241.213055,162.5102 241.213055,162.5102 C241.213055,162.5102 248.433455,157.5116 251.766155,156.4001 C255.098255,155.2895 269.539355,142.5149 273.426755,136.961 C277.314755,131.4068 275.648855,133.073 277.870055,129.185 C280.092155,125.297 276.759455,119.1878 276.759455,119.1878 C276.759455,119.1878 273.982655,120.8537 271.760855,123.6311 C269.539355,126.4082 266.206955,130.8515 260.652755,134.1836 C255.098255,137.5163 251.210855,138.6269 251.210855,138.6269 C251.210855,138.6269 246.767455,140.2937 246.767455,136.4057 C246.767455,132.5177 257.320055,128.0744 263.429555,124.7417 C269.539355,121.409 270.650255,116.4104 271.205555,110.3009 C271.760855,104.1916 271.760855,102.5251 271.205555,98.6371 C270.650255,94.7491 270.094955,98.6371 267.317555,101.9698 C264.540155,105.3023 260.096855,108.6349 255.653555,112.5224 C251.210855,116.4104 241.213055,121.409 235.103455,126.4082 C228.994255,131.4068 223.439755,140.849 221.218255,146.9582 C218.996155,153.0683 218.440855,156.4001 217.330255,161.399 C216.219655,166.3977 214.552855,173.6181 212.886955,178.0614 C211.500555,181.7594 207.034555,185.8374 205.575555,187.1042 C205.275355,187.0163 205.110955,186.9678 205.110955,186.9678 C205.110955,186.9678 203.715455,186.9247 201.636255,186.8944 C202.150155,185.5182 202.704355,183.7961 202.889755,181.3941 C203.445055,174.1737 210.109555,165.8423 212.331655,161.399 C214.552855,156.9554 213.442255,154.1789 213.442255,154.1789 C213.442255,154.1789 208.998955,158.0669 206.221555,161.9543 C203.445055,165.8423 200.112355,171.9521 197.334955,175.2843 C194.558455,178.617 191.225755,181.3941 189.004255,186.9483 C188.988055,186.9882 188.973655,187.0274 188.957755,187.0676 C188.686155,187.0832 188.418055,187.103 188.160055,187.1212 C188.689555,186.7983 188.815455,186.55 188.448355,186.3927 C184.900755,184.8713 184.592355,176.4099 184.565755,174.9444 C186.357555,172.2492 187.722955,169.1748 187.722955,169.1748 L189.825955,160.1711 Z M101.887955,284.7379 C101.887955,284.7379 103.294755,274.8903 106.952255,271.7949 C110.610155,268.7 113.704955,265.3237 118.207255,263.9168 C122.708955,262.5103 126.085255,260.822 130.868155,263.3542 C135.651355,265.8866 135.651355,268.9815 135.651355,268.9815 C135.651355,268.9815 133.119455,273.7644 128.617255,276.5786 C124.115455,279.392 116.237755,279.392 113.704955,281.3615 C111.173055,283.3305 108.359155,286.4262 105.264255,286.7068 C102.169355,286.9883 101.887955,284.7379 101.887955,284.7379 Z M282.036155,240.9622 C280.647455,242.6981 280.994755,249.2932 285.160255,257.6245 C289.326055,265.9558 290.020255,269.0799 293.491555,273.5926 C296.962855,278.1059 301.822855,282.2712 302.516755,284.0071 C303.211255,285.7425 304.946655,289.5613 304.946655,289.5613 C304.946655,289.5613 311.889555,291.6439 314.666655,293.3799 C317.444055,295.1152 319.526655,297.5451 319.179355,295.1152 C318.832155,292.6851 313.625455,278.7999 311.542555,273.9399 C309.459355,269.0799 303.905455,257.2772 300.434155,251.7233 C296.962855,246.1694 295.921355,242.3506 291.408655,240.6152 C286.896155,238.8793 283.424855,239.2268 282.036155,240.9622 Z M275.648855,93.0829 C294.260555,72.7795 301.771555,57.7899 303.419355,29.7657 C303.974655,20.3238 305.641355,13.1034 305.641355,13.1034 L307.862655,9.7707 C307.862655,9.7707 311.750655,13.6587 311.750655,17.5467 C311.750655,35.9002 307.862655,54.392 301.198055,71.4217 C296.440155,83.5775 275.455255,112.5065 275.455255,112.5065 C277.609555,104.2733 278.774055,96.3669 275.648855,93.0829 Z M281.202755,114.1889 C299.807655,94.9374 308.257755,66.9282 314.528055,41.4297 C317.346755,29.9676 323.067955,9.6483 335.078055,4.2165 L338.410755,5.8833 C338.410755,5.8833 332.301255,11.4372 330.634755,15.8805 C328.968555,20.3238 323.969955,33.0984 321.748155,44.2066 C318.177055,62.0648 311.430855,86.8031 302.864055,103.0805 C297.310055,113.6336 282.313355,131.9624 282.313355,131.9624 C284.144255,125.5983 283.773255,119.6736 281.202755,114.1889 Z M283.980155,136.4057 C282.869555,136.961 295.736555,124.4783 298.420655,120.2984 C311.550755,99.8492 310.571655,93.6811 316.193955,77.5318 C320.530055,65.0769 330.079455,58.6471 330.079455,58.6471 L335.078055,57.5365 L335.633355,61.0614 C324.731555,72.0261 320.681155,84.077 317.282955,96.0525 C314.124655,107.1828 305.862255,134.8288 292.118955,147.5572 L283.770355,155.2895 C285.929855,150.0987 288.825455,142.2346 283.980155,136.4057 Z M281.758055,163.6208 C278.172555,165.1674 292.594055,154.5233 295.643355,150.8462 C312.463255,130.5672 309.440055,122.7435 318.971355,110.2799 C326.190855,100.8385 329.523855,98.0818 329.523855,98.0818 C332.100255,97.8726 333.406155,100.2832 332.301255,101.4143 C313.218655,120.9526 316.860055,128.1064 310.640055,144.1814 C306.758555,154.2149 290.828955,171.6165 281.202755,178.617 C283.128655,177.8459 285.344155,162.0737 281.758055,163.6208 Z M275.286855,188.0589 C287.800955,185.665 298.023855,171.8495 310.084655,163.6208 C314.672555,160.4905 321.192555,158.0669 321.192555,158.0669 C321.192555,158.0669 313.416855,166.3977 307.862655,173.0628 C294.946555,188.5623 282.253055,201.3888 260.652755,201.3888 C263.892755,200.0245 275.099255,191.5478 275.286855,188.0589 Z M103.401855,137.4491 C103.401855,137.4491 91.5817546,119.3817 88.1755546,110.2124 C80.4293546,89.3588 79.7062546,75.1722 70.4182546,62.788 C67.8423546,59.3546 61.6118546,47.8584 61.6118546,47.8584 L61.6118546,45.2823 C61.6118546,45.2823 69.0048546,52.7652 71.3440546,55.5868 C89.5019546,77.4938 93.6271546,115.4681 107.998555,123.3059 C107.280555,124.1308 103.974755,127.4309 103.974755,127.4309 L103.401855,137.4491 Z M106.868355,117.8427 C106.868355,117.8427 94.7488546,95.6131 91.4703546,88.3034 C75.3590546,52.3845 79.4953546,33.3054 66.3984546,8.5189 C63.5070546,3.0467 62.8741546,-2.84217094e-14 62.8741546,-2.84217094e-14 C62.8741546,-2.84217094e-14 72.4016546,9.0388 76.0495546,16.992 C84.2924546,34.9651 90.7945546,80.1289 109.365455,102.8095 L106.554355,105.5874 L106.868355,117.8427 Z M110.336255,97.7536 C93.2051546,70.1708 85.7182546,38.9647 85.8137546,8.7987 C85.8137546,8.7987 87.0709546,8.4852 87.3850546,10.9984 C89.0376546,24.2107 94.3982546,50.8286 114.388155,86.1154 L110.953955,87.0466 L110.336255,97.7536 Z M34.5418546,350.429225 C34.5871546,350.4594 40.0543546,344.973 45.0886546,346.2928 C48.7422546,347.2509 53.4129546,346.3041 56.0987546,344.7697 C58.7845546,343.2348 66.9222546,327.7091 68.4572546,321.9539 C69.9921546,316.199 80.2062546,295.6589 80.2062546,295.6589 C80.2062546,295.6589 82.5593546,293.811 84.4777546,289.5908 C86.3960546,285.3703 88.7921546,278.2154 90.7106546,274.3787 C92.6288546,270.542 97.2331546,255.1946 97.2331546,250.5906 C97.2331546,245.9863 97.6163546,238.697 97.6163546,238.697 L108.359155,247.5212 C108.359155,247.5212 136.367455,224.117 138.285855,222.9661 C140.204055,221.8153 136.367455,228.7213 138.285855,234.4762 C140.204055,240.2314 144.040755,243.301 144.040755,246.3704 C144.040755,249.4394 143.657555,255.5787 141.739055,258.6478 C139.820855,261.7171 137.135055,265.5538 140.588155,267.0888 C144.040755,268.6238 146.726655,268.6238 148.645155,266.3212 C150.563355,264.0194 154.784055,261.3336 155.167655,258.6478 C155.551455,255.962 158.237255,249.4394 161.690155,248.2886 C165.143355,247.1377 165.910655,247.1377 171.281755,245.6028 C176.653355,244.0681 175.502555,244.0681 177.804255,240.6152 C180.106555,237.162 179.722755,235.2435 183.943255,235.2435 C188.163455,235.2435 193.151555,235.2435 197.371855,237.162 C201.592655,239.0805 200.824955,241.7661 205.812555,240.9987 C210.800055,240.2314 215.788555,239.0805 218.857555,237.5456 C221.926955,236.0112 228.449455,236.7785 232.286155,239.4638 C236.122855,242.1496 241.494455,250.2071 246.098555,252.5088 C250.702555,254.8111 257.225055,258.264 260.294455,260.1828 C263.363755,262.1012 269.886355,263.2521 274.490355,269.007 C279.094355,274.7622 281.396955,275.5295 284.849555,278.983 C288.302755,282.4356 295.208755,285.1214 295.208755,285.1214 C295.208755,285.1214 293.290255,276.2971 290.604455,272.8437 C287.918955,269.3905 280.245255,257.8805 279.861955,254.4273 C279.478455,250.9744 276.025255,244.4519 277.559655,239.8479 C279.094355,235.2435 279.861955,233.7089 283.315155,234.0927 C286.767755,234.4762 292.139455,236.7785 295.592855,239.4638 C299.045455,242.1496 303.266255,247.9048 304.417155,245.6028 C305.567955,243.301 306.184555,241.8111 305.610455,241.0279 L304.364655,239.5227 L303.360055,237.9855 L302.393755,236.5251 L301.465955,235.1452 L300.575555,233.8526 L299.722655,232.6541 L298.910255,231.5602 L298.138055,230.5749 L297.408455,229.7078 L296.726755,228.9637 L296.100255,228.3571 L295.538955,227.8908 L295.061355,227.5727 L294.633055,227.3658 L293.521555,226.9746 L292.311455,226.603 L291.049255,226.279 L289.721755,226.0003 L288.323155,225.7784 L286.834955,225.6117 L285.251455,225.508 L283.549055,225.4714 L281.835155,225.4836 L280.213755,225.4788 L278.648755,225.4019 L277.100455,225.1876 L275.558455,224.7639 L274.031155,224.0685 L272.529355,223.071 L271.051055,221.7563 L269.529455,220.1488 L267.910855,218.3196 L266.219155,216.362 L264.494255,214.3854 L262.792655,212.5085 L261.166655,210.8483 L259.694355,209.5347 L258.467455,208.6863 L257.185155,208.1333 L255.549255,207.6823 L253.728255,207.3461 L251.892555,207.1148 L250.207955,206.9736 L249.966655,206.9603 L250.681555,209.1064 L248.123055,209.3244 L247.048455,209.3961 L245.491955,209.4667 L243.623555,209.4987 L241.616055,209.4551 L239.616255,209.2841 L237.742855,208.9236 L236.158255,208.254 L234.783155,207.1012 L233.238855,205.5401 L231.509155,203.6568 L229.671455,201.6008 L227.831755,199.5463 L226.099855,197.668 L224.612755,196.1634 L223.522255,195.2317 L223.027055,194.9346 L222.170455,194.5207 L221.036555,194.0371 L219.689855,193.5108 L218.190355,192.9591 L216.579655,192.3914 L214.911455,191.8261 L213.226855,191.2685 L211.575355,190.7376 L209.997855,190.2382 L208.540855,189.786 L207.250255,189.3892 L206.169955,189.064 L205.342255,188.8152 L204.843055,188.6666 L204.470655,188.6584 L203.770155,188.6428 L202.844055,188.623 L201.727855,188.606 L200.998155,188.596 C200.391555,190.3425 200.329255,191.6081 202.334455,193.6134 C206.221555,197.5008 207.333055,198.612 212.331655,198.612 C217.330255,198.612 222.328855,202.5 223.995055,205.2768 C225.661555,208.0542 226.216855,208.0542 226.216855,208.0542 L192.336355,209.1648 C192.336355,209.1648 188.448355,208.0542 186.782455,204.1662 C185.296555,200.6983 186.458455,194.142 188.303755,188.8228 L188.285355,188.824 L187.025955,188.9322 L185.916455,189.064 L184.831355,189.2114 L183.667755,189.3537 L182.459555,189.4924 L181.203855,189.6242 L179.907855,189.7605 L178.565955,189.8943 L177.187155,190.0349 L175.770655,190.1795 L174.320755,190.3379 L172.835955,190.5046 L171.320855,190.6863 L169.775455,190.8833 L168.206755,191.1007 L166.612255,191.3366 L164.995955,191.596 L163.369955,191.8786 L161.820555,192.1904 L160.404055,192.5232 L159.095555,192.8676 L157.882355,193.2125 L156.753655,193.5476 L155.683855,193.8583 L154.663355,194.1344 L153.672355,194.3563 L152.692655,194.512 L151.701455,194.572 L150.702755,194.5049 L149.702755,194.284 L148.727855,193.8971 L147.790155,193.3429 L146.893855,192.6292 L146.039755,191.7737 L145.226255,190.8485 L144.430855,189.8833 L143.648755,188.8699 L142.889955,187.814 L142.162855,186.7277 L141.478555,185.6131 L140.847555,184.4816 L140.277555,183.3369 L139.785155,182.1883 L139.377255,181.0358 L139.070255,179.8849 L138.876655,178.734 L138.824155,177.5866 L138.936155,176.4468 L139.249655,175.3356 L139.774655,174.3211 L140.950155,172.796 L142.296655,171.4294 L143.798455,170.2128 C153.810955,163.728 161.715655,169.2618 169.887355,175.7299 L171.020055,176.544 C174.573055,178.6739 178.234855,177.5381 181.293155,174.6031 L181.958455,173.772 L182.636755,172.7708 L183.287355,171.7115 L183.880355,170.6726 C185.851255,166.9756 182.901555,165.6317 185.367055,159.9653 L187.209655,157.7622 L187.142455,156.6572 L187.003855,155.6158 L186.798055,154.7912 L186.512055,154.18 L185.941355,153.2885 L185.070855,151.8806 L184.062355,150.2081 L182.994255,148.4115 L171.302155,129.3242 C163.995255,120.183 154.816655,119.7768 143.857355,120.454 L142.709955,120.532 L141.631955,120.6102 L140.724555,120.6782 L140.098655,120.7256 L139.074255,120.8012 L128.944055,109.8105 L123.538055,109.7818 L124.244455,110.7125 C126.944755,114.063 127.612055,117.8637 127.009355,123.0726 C126.889455,124.1093 126.579355,124.8327 126.040755,125.7264 C106.463555,136.3946 101.923355,155.5639 100.107755,175.276 C99.7622546,178.365 99.3086546,181.3416 98.4645546,184.3427 C94.7973546,196.2119 84.1413546,205.1461 83.8978546,218.0089 C83.7759546,235.1942 88.7351546,247.4699 83.5772546,270.1936 L78.8141546,291.1788 C73.1230546,300.1856 70.3366546,310.5558 66.2564546,320.3864 C63.1065546,327.9265 56.6696546,345.5028 47.7989546,341.6865 C40.3060546,341.4685 37.8541546,342.9615 34.5418546,350.429225 Z M165.318755,138.8973 C165.318755,138.8973 170.975355,152.4104 171.289355,153.9813 C171.603455,155.5523 171.603455,147.0679 171.603455,147.0679 L174.117255,146.4398 L172.860355,142.6688 L166.889755,138.8973 L165.318755,138.8973 Z M321.023555,301.2845 C319.844055,300.6949 325.739555,308.0639 326.918555,313.9588 C328.097455,319.8537 328.177955,332.5317 328.177955,332.5317 C331.554355,327.0027 331.040955,311.8507 327.946655,307.6112 C325.701355,304.5356 322.202555,301.8736 321.023555,301.2845 L321.023555,301.2845 Z" id="Fill-1" fill="#C2A875"></path>
                <polygon id="Fill-2" fill="#C2A875" points="0.79535459 364.6329 383.360055 364.6329 383.360055 369.138 0.79535459 369.138"></polygon>
                <path d="M346.848955,389.6461 L346.853455,430.2187 L348.594255,430.2187 C353.909455,430.2187 358.258955,425.8686 358.258955,420.5537 L358.258955,393.5061 C358.258955,388.1911 353.910055,383.8411 348.594255,383.8411 L303.344755,383.8411 C298.028955,383.8411 293.680055,388.1903 293.680055,393.5061 L293.680055,420.5537 C293.680055,425.8695 298.029755,430.2187 303.344755,430.2187 L305.131755,430.2187 L305.131755,389.6461 L346.848955,389.6461 Z M346.854355,437.2135 L346.856255,452.393 L310.584155,452.393 C307.587355,452.393 305.131755,450.6409 305.131755,448.4988 L305.131755,437.2135 L296.015455,437.2135 C282.231155,437.2135 270.953855,425.9157 270.953855,412.1087 L270.953855,401.9508 C270.953855,388.144 282.231155,376.8451 296.015455,376.8451 L355.982755,376.8451 C369.767355,376.8451 381.044355,388.144 381.044355,401.9508 L381.044355,412.1087 C381.044355,425.9157 369.767355,437.2135 355.982755,437.2135 L346.854355,437.2135 Z M0.79535459,376.8497 L82.2466546,376.8474 C84.8641546,376.8474 87.8042546,379.7793 87.8042546,382.3974 L87.8042546,385.039 L65.2628546,385.039 L65.2696546,452.393 L28.9978546,452.393 C25.9993546,452.393 23.5453546,450.6409 23.5453546,448.4988 L23.5453546,385.0412 L6.35525459,385.0412 C3.73375459,385.0412 0.79535459,382.1094 0.79535459,379.4916 L0.79535459,376.8497 Z M133.258055,376.8474 C136.543755,376.8474 140.534355,378.8685 141.696855,381.941 L168.349555,452.3933 L143.288455,452.3933 C139.025755,452.3933 134.185055,449.2414 132.676655,445.2539 L109.410455,383.752 L95.5952546,419.4215 L108.452055,419.4215 C112.579355,419.4215 117.356855,422.3327 118.819555,426.1924 L128.747355,452.3933 L82.8249546,452.3933 C80.5379546,452.3933 78.0077546,448.9446 78.8337546,446.8121 L105.931555,376.8474 C115.038155,376.8474 124.148955,376.8474 133.258055,376.8474 Z M261.858555,452.3933 L260.893155,452.3933 C258.044555,452.3933 254.310255,449.7916 254.310255,446.9434 L254.310255,388.8397 L219.652155,446.6795 C217.708455,449.9237 213.631055,452.3933 209.848755,452.3933 L183.214455,452.3933 C180.610555,452.3933 178.046055,449.1365 178.046055,446.5315 L178.046055,376.8474 L179.011555,376.8474 C181.860055,376.8474 185.594455,379.4491 185.594455,382.297 L185.594455,440.3018 L219.503055,383.7141 C221.704155,380.0404 223.421655,376.8474 231.983155,376.8474 L256.014955,376.8474 C258.686655,376.8474 261.858555,379.6614 261.858555,382.3325 L261.858555,452.3933 Z" id="Fill-3" fill="#6C3120"></path>
                <path d="M-8.52651283e-14,496.1378 L-8.52651283e-14,466.851201 L17.040208,466.851201 L17.040208,471.84644 L4.87438574,471.84644 L4.87438574,496.1378 L-8.52651283e-14,496.1378 Z M23.7534241,496.1378 L23.7534241,466.609496 L31.6088391,466.609496 C34.5361708,466.609496 36.4496502,466.75049 37.3493347,467.03248 C38.7861443,467.489036 39.9711588,468.462561 40.9044136,469.953083 C41.8376684,471.443605 42.3042889,473.363799 42.3042889,475.713721 C42.3042889,477.848793 41.9014511,479.638064 41.0957635,481.081588 C40.2900758,482.525111 39.2829814,483.53892 38.07445,484.123043 C36.8659186,484.707167 34.7845901,484.999224 31.8304021,484.999224 L28.6278098,484.999224 L28.6278098,496.1378 L23.7534241,496.1378 Z M28.6278098,471.604735 L28.6278098,479.983844 L31.3268499,479.983844 C33.139647,479.983844 34.3716592,479.856279 35.0229234,479.601144 C35.6741875,479.34601 36.2079476,478.886103 36.6242195,478.221411 C37.0404915,477.556719 37.2486243,476.740972 37.2486243,475.774147 C37.2486243,474.793894 37.0337775,473.968076 36.6040774,473.29667 C36.1743774,472.625264 35.6439743,472.175428 35.0128523,471.94715 C34.3817304,471.718872 33.0456518,471.604735 31.0045764,471.604735 L28.6278098,471.604735 Z M56.2686573,487.798975 L47.3658536,466.609496 L52.844502,466.609496 L58.4641451,481.937627 L63.3385308,466.609496 L68.3941954,466.609496 L60.236649,489.047784 C59.2295395,491.787122 58.2560149,493.71403 57.316046,494.828564 C56.3760771,495.943099 55.2481313,496.500358 53.9321749,496.500358 C52.6699309,496.500358 51.5419852,496.379506 50.5483038,496.1378 L50.5483038,491.726682 C51.3539914,491.780395 51.964962,491.807251 52.381234,491.807251 C53.5629091,491.807251 54.3920835,491.558834 54.868782,491.061993 C55.3454806,490.565153 55.812101,489.477491 56.2686573,487.798975 Z M79.2969662,496.1378 L74.4225804,496.1378 L74.4225804,466.609496 L93.7589867,466.609496 L93.7589867,496.1378 L88.904743,496.1378 L88.904743,471.584592 L79.2969662,471.584592 L79.2969662,496.1378 Z M107.219803,496.1378 L102.345417,496.1378 L102.345417,466.609496 L121.681823,466.609496 L121.681823,496.1378 L116.82758,496.1378 L116.82758,471.584592 L107.219803,471.584592 L107.219803,496.1378 Z M152.041853,496.1378 L146.724341,496.1378 L144.609422,489.430484 L134.941219,489.430484 L132.947152,496.1378 L127.750493,496.1378 L137.176991,466.609496 L142.353508,466.609496 L152.041853,496.1378 Z M143.038339,484.455388 L139.714894,473.498091 L136.431733,484.455388 L143.038339,484.455388 Z M171.148354,496.1378 L171.148354,466.609496 L176.02274,466.609496 L176.02274,479.17816 C177.110419,479.043879 177.862382,478.677968 178.278654,478.080416 C178.694926,477.482865 179.245471,476.04272 179.930306,473.759938 C180.61514,471.477157 181.32682,469.815451 182.065367,468.774771 C182.803914,467.734091 183.589448,467.099622 184.421992,466.871343 C185.254536,466.643065 186.68461,466.48193 188.712257,466.387933 L188.712257,470.819193 L188.027426,470.819193 C186.644329,470.819193 185.707731,471.138106 185.217604,471.775942 C184.727478,472.413778 184.22393,473.645791 183.706947,475.472016 C183.189965,477.298241 182.746843,478.513468 182.37757,479.117734 C182.008296,479.722 181.41411,480.319542 180.594995,480.91038 C181.669245,481.353508 182.545417,482.071902 183.223537,483.065584 C183.901658,484.059265 184.717404,485.724328 185.670801,488.060822 L188.974104,496.1378 L183.233608,496.1378 L180.313005,488.503948 C179.574458,486.55687 178.939989,485.197292 178.409578,484.425175 C177.879167,483.653057 177.083562,483.253577 176.02274,483.22672 L176.02274,496.1378 L171.148354,496.1378 Z M194.257232,481.554927 C194.257232,478.036758 194.777564,475.139683 195.818244,472.863615 C196.858924,470.587548 198.218501,468.892272 199.897017,467.777737 C201.575533,466.663203 203.609863,466.105944 206.00007,466.105944 C209.464527,466.105944 212.287748,467.428595 214.469819,470.073936 C216.65189,472.719277 217.742908,476.48581 217.742908,481.373648 C217.742908,486.315199 216.588107,490.175728 214.278469,492.95535 C212.250822,495.412697 209.498097,496.641352 206.020212,496.641352 C202.515471,496.641352 199.749318,495.426125 197.721671,492.995634 C195.412033,490.216012 194.257232,486.402481 194.257232,481.554927 Z M199.292754,481.353506 C199.292754,484.750822 199.937295,487.298771 201.226395,488.997429 C202.515495,490.696087 204.113418,491.545404 206.020212,491.545404 C207.940434,491.545404 209.531644,490.702801 210.793887,489.017571 C212.056131,487.332341 212.687244,484.744109 212.687244,481.252796 C212.687244,477.828623 212.072916,475.297459 210.844243,473.659228 C209.615569,472.020996 208.007575,471.201893 206.020212,471.201893 C204.032849,471.201893 202.414784,472.02771 201.165969,473.67937 C199.917153,475.331029 199.292754,477.889049 199.292754,481.353506 Z M224.999961,496.1378 L224.999961,466.609496 L232.31154,466.609496 L236.702515,486.751586 L241.053207,466.609496 L248.384927,466.609496 L248.384927,496.1378 L243.852957,496.1378 L243.852957,472.893828 L239.038998,496.1378 L234.325749,496.1378 L229.552073,472.893828 L229.552073,496.1378 L224.999961,496.1378 Z M261.684607,496.1378 L256.810221,496.1378 L256.810221,466.609496 L276.146627,466.609496 L276.146627,496.1378 L271.292384,496.1378 L271.292384,471.584592 L261.684607,471.584592 L261.684607,496.1378 Z M306.506657,496.1378 L301.189145,496.1378 L299.074226,489.430484 L289.406023,489.430484 L287.411956,496.1378 L282.215297,496.1378 L291.641795,466.609496 L296.818312,466.609496 L306.506657,496.1378 Z M297.503143,484.455388 L294.179698,473.498091 L290.896537,484.455388 L297.503143,484.455388 Z M312.61561,496.1378 L312.61561,466.609496 L317.489996,466.609496 L317.489996,478.231482 L327.077631,478.231482 L327.077631,466.609496 L331.972159,466.609496 L331.972159,496.1378 L327.077631,496.1378 L327.077631,483.22672 L317.489996,483.22672 L317.489996,496.1378 L312.61561,496.1378 Z M340.538447,496.1378 L340.538447,466.609496 L345.19127,466.609496 L345.19127,486.288318 L354.980325,466.609496 L359.874853,466.609496 L359.874853,496.1378 L355.22203,496.1378 L355.22203,476.881962 L345.453117,496.1378 L340.538447,496.1378 Z M368.380715,496.1378 L368.380715,466.609496 L373.033538,466.609496 L373.033538,486.288318 L382.822594,466.609496 L387.717122,466.609496 L387.717122,496.1378 L383.064299,496.1378 L383.064299,476.881962 L373.295385,496.1378 L368.380715,496.1378 Z M381.05009,458.774223 L383.306004,458.774223 C383.185151,460.654161 382.651391,462.10102 381.704708,463.114844 C380.758025,464.128667 379.579724,464.635571 378.169771,464.635571 C376.759818,464.635571 375.581517,464.128667 374.634834,463.114844 C373.688151,462.10102 373.147677,460.654161 373.013396,458.774223 L375.26931,458.774223 C375.443876,460.707874 376.410686,461.674684 378.169771,461.674684 C379.928856,461.674684 380.888952,460.707874 381.05009,458.774223 Z" id="ГРУППАКОМПАНИЙ" fill="#6C3120" fill-rule="nonzero"></path>
            </g>
        </g>
    </g>
</svg>