<svg width="81" height="20" viewBox="0 0 81 20" fill="none" xmlns="http://www.w3.org/2000/svg">
<path fill-rule="evenodd" clip-rule="evenodd" d="M44.0108 5.60082C44.2032 5.79205 45.935 10.348 46.1161 10.9105C46.2964 11.5131 46.5511 12.0912 46.8744 12.6316C47.4743 12.7666 47.5309 12.1704 47.712 11.6979C48.6967 9.14433 50.1908 5.42083 50.9378 2.91224C51.4585 1.69732 51.5038 1.37109 50.5643 1.37109C49.6249 1.37109 49.7267 1.97855 49.3532 2.766C49.025 4.26215 47.7573 7.4232 47.2932 8.87435C47.2932 9.06559 47.2932 9.06559 47.0555 9.06559C46.2746 6.90573 45.3691 4.26215 44.4862 2.12479C44.2485 1.70857 43.8297 1.61858 43.5468 2.55227C43.0714 4.03717 42.4149 5.8033 41.9056 7.24321C41.9056 7.24321 41.2944 9.06559 41.2491 9.15558C40.9254 8.63832 40.6884 8.07224 40.5473 7.47944C39.8456 5.75831 39.2344 3.90218 38.6345 2.18104C38.4873 1.85481 38.4873 1.66357 38.1591 1.47234C37.8301 1.35116 37.4744 1.32008 37.1291 1.38234C36.201 1.52858 36.8009 2.27103 36.9933 2.82225C38.1251 5.8483 39.3815 9.48181 40.6379 12.3616C40.6673 12.433 40.7151 12.4954 40.7765 12.5425C40.8379 12.5897 40.9107 12.6199 40.9876 12.6302C41.0645 12.6404 41.1428 12.6304 41.2145 12.601C41.2862 12.5716 41.3489 12.524 41.3962 12.4629C41.5773 12.1141 43.875 5.60082 44.0108 5.60082Z" fill="#221F20"/>
<path fill-rule="evenodd" clip-rule="evenodd" d="M1.18116 1.56235C1.13437 1.74975 1.15027 1.94719 1.22643 2.12481C1.41885 2.91226 0.85292 11.8892 1.00006 12.2491C1.45821 12.4539 1.97187 12.5014 2.46016 12.3841C2.68654 12.1479 2.59599 11.9229 2.59599 11.5517C2.59599 9.96554 2.73181 8.43565 2.73181 6.8045C2.7884 6.19704 2.83368 5.78082 2.83368 5.40959C2.83368 5.03837 2.83368 5.08337 2.92423 4.99337C3.01478 4.90338 4.49751 7.46821 4.64466 7.74944C4.92762 8.30065 5.48223 9.14435 5.85575 9.79681C6.42168 10.8205 6.70465 10.123 6.84047 9.8868C7.16871 9.47058 9.70408 5.04962 9.88518 4.95962C10.055 5.13961 10.055 9.56057 10.055 9.8868C10.055 12.3054 9.77199 12.5416 11.3113 12.4404C11.7867 12.4404 11.832 12.0692 11.7867 11.6529C11.7867 10.8655 11.7867 9.97679 11.7867 9.18935C11.6622 7.18698 11.5717 4.90338 11.5717 2.91226C11.5717 2.67602 11.6622 1.78733 11.6622 1.65234C11.5236 1.49715 11.3359 1.39361 11.1301 1.35884C10.9243 1.32406 10.7127 1.36014 10.5303 1.4611C10.2021 1.65234 10.1115 2.06856 9.87386 2.3498C8.92309 4.02594 7.64409 5.92706 6.74992 7.51321C6.42168 8.07567 6.42168 7.88443 6.13871 7.51321C5.52751 6.62451 4.73521 5.09462 4.18059 4.20592L3.04873 2.3498C2.8914 2.02724 2.68949 1.72811 2.44884 1.4611C2.13192 1.23612 1.5094 1.41611 1.18116 1.56235Z" fill="#221F20"/>
<path fill-rule="evenodd" clip-rule="evenodd" d="M60.9096 6.77096C61.3102 6.44609 61.7854 6.22473 62.2929 6.1266C62.8004 6.02846 63.3245 6.0566 63.8185 6.2085C65.3125 6.86095 65.5049 9.05456 64.8484 10.1232C64.5689 10.5397 64.1661 10.8597 63.6957 11.039C63.2254 11.2184 62.7107 11.2482 62.2225 11.1244C61.7497 11.0317 61.3021 10.8399 60.9096 10.562V6.77096ZM60.9096 5.18481C60.839 3.95965 60.839 2.73147 60.9096 1.50631C60.9096 1.00009 60.7285 0.910096 60.2531 1.09008C59.1212 1.56255 59.1212 1.37132 59.2797 2.395C59.3702 2.91246 59.2797 8.90832 59.2797 9.75201C59.2797 11.4169 59.042 11.7994 61.4755 12.4968C62.1684 12.6413 62.8836 12.645 63.578 12.5077C64.2724 12.3705 64.9317 12.0951 65.5162 11.6981C67.9045 9.75201 67.248 4.26238 62.8903 4.6786C62.5105 4.69903 62.1324 4.74412 61.7585 4.81359C61.6113 4.85859 61.0567 5.18481 60.9888 5.18481H60.9096Z" fill="#221F20"/>
<path fill-rule="evenodd" clip-rule="evenodd" d="M27.9044 12.3505C28.0814 11.7638 28.1316 11.1466 28.0515 10.5393C28.0052 9.90271 28.0052 9.26359 28.0515 8.62696C28.1874 8.62696 28.3345 8.86319 28.6175 9.14443C28.9004 9.42566 31.2321 11.8442 31.6056 12.1142C31.7359 12.2348 31.893 12.3231 32.0641 12.3719C32.2352 12.4208 32.4155 12.4289 32.5903 12.3955C32.9185 12.3955 33.4392 12.3955 33.6203 12.1705C33.6203 11.8442 32.9638 11.3268 32.6809 11.0456C32.3979 10.7643 32.0357 10.4043 31.7075 10.0219C30.9875 9.39216 30.3142 8.71169 29.6927 7.98575C29.6927 7.88451 32.2621 5.7359 32.7375 5.33093C32.9186 5.13969 33.111 5.09469 33.0657 4.81346C32.4831 4.63485 31.8599 4.63485 31.2773 4.81346C31.051 4.9147 29.5003 6.30961 29.0815 6.68084C28.9457 6.81583 28.1421 7.65952 28.0515 7.61453C27.9157 7.18706 28.0515 1.37119 27.961 1.04496C27.8704 0.718731 26.2745 1.2362 26.3198 1.79866C26.4085 2.19385 26.4541 2.59742 26.4556 3.00233V11.0456C26.4556 11.3268 26.3651 12.1705 26.5575 12.3055C26.9979 12.4173 27.4575 12.4327 27.9044 12.3505V12.3505Z" fill="#221F20"/>
<path fill-rule="evenodd" clip-rule="evenodd" d="M15.7143 8.53695C16.2349 8.40196 17.978 8.81818 18.0572 9.2794C18.1025 9.77711 18.1025 10.2779 18.0572 10.7756C17.729 11.1918 15.4766 12.0242 14.7296 10.5393C14.6289 10.3284 14.5767 10.0978 14.5767 9.86436C14.5767 9.6309 14.6289 9.40035 14.7296 9.18941C14.8383 9.0179 14.9821 8.87112 15.1518 8.75869C15.3215 8.64626 15.5132 8.57069 15.7143 8.53695ZM18.1025 7.97449C17.6627 7.6849 17.1708 7.48246 16.6537 7.37828C16.0094 7.30737 15.3575 7.3531 14.7296 7.51327C14.2009 7.66377 13.7347 7.9789 13.3996 8.41232C13.0646 8.84574 12.8782 9.37459 12.8681 9.92109C12.858 10.4676 13.0245 11.0029 13.3433 11.4483C13.6621 11.8937 14.1163 12.2257 14.639 12.3954C15.5343 12.6989 16.5055 12.6989 17.4008 12.3954C17.5932 12.3055 17.9667 12.0692 18.1025 12.0242C18.2383 11.9792 18.2949 12.3505 18.476 12.4404C18.6571 12.5304 19.506 12.4404 19.7437 12.2155C19.9814 11.9905 20.0267 12.0242 19.8795 11.698C19.6605 11.2675 19.5814 10.7801 19.6532 10.3031V6.95081C19.7124 6.47615 19.5957 5.99629 19.3249 5.60089C18.4308 3.83476 13.0431 4.53221 13.4732 6.02837C13.9033 7.52452 14.6051 5.5109 16.982 5.79213C18.261 5.92712 18.1252 7.14204 18.1252 7.97449H18.1025Z" fill="#221F20"/>
<path fill-rule="evenodd" clip-rule="evenodd" d="M73.5071 7.74941H69.6249C69.6769 7.28751 69.889 6.858 70.2247 6.53449C70.5913 6.21504 71.0517 6.02171 71.5377 5.98328C71.7908 5.9625 72.0456 5.99263 72.2867 6.07187C72.5278 6.15112 72.7504 6.27785 72.9412 6.4445C73.1332 6.60152 73.2848 6.80185 73.3832 7.02882C73.4817 7.25579 73.5241 7.50283 73.5071 7.74941V7.74941ZM69.523 8.95308C69.806 8.81809 74.0504 8.95308 74.8201 8.95308C75.5898 8.95308 75.2389 6.4445 73.8354 5.42081C73.262 4.99596 72.5794 4.74093 71.8664 4.68519C71.1534 4.62945 70.4391 4.77526 69.8059 5.10578C69.1727 5.43631 68.6465 5.93808 68.288 6.55315C67.9295 7.16823 67.7534 7.87153 67.7799 8.58186C67.753 9.27176 67.9146 9.95604 68.2474 10.5621C68.5801 11.1681 69.0718 11.6733 69.6701 12.0241C70.9265 12.8678 74.2994 12.8228 74.7182 11.5179C75.2389 9.84177 74.0165 10.7755 73.5864 10.9554C73.2247 11.1028 72.8434 11.1975 72.4545 11.2367C69.9531 11.5179 69.3419 9.32431 69.523 8.95308Z" fill="#221F20"/>
<path fill-rule="evenodd" clip-rule="evenodd" d="M52.5338 7.74963C52.5735 7.26916 52.7932 6.82102 53.1496 6.49395C53.5059 6.16687 53.9729 5.9847 54.4579 5.9835C55.4313 5.88225 56.5632 6.72595 56.3708 7.74963H52.5338ZM52.3413 8.87455C52.579 8.87455 56.982 8.87455 57.5932 8.87455C58.2044 8.87455 58.1025 8.50333 58.0572 8.04211C58.0242 7.4175 57.8284 6.81213 57.4892 6.28532C57.1499 5.7585 56.6788 5.32829 56.122 5.03684C55.5651 4.74538 54.9417 4.60268 54.3127 4.6227C53.6837 4.64272 53.0707 4.82478 52.5338 5.15105C51.93 5.50554 51.4363 6.01859 51.1068 6.6338C50.7773 7.24902 50.6249 7.9426 50.6662 8.63832C50.6182 9.3251 50.7737 10.0108 51.1137 10.6106C51.4537 11.2104 51.9631 11.698 52.579 12.0131C54.175 12.9918 57.3102 12.5756 57.5932 11.4619C57.5932 11.1357 57.8195 10.337 57.3102 10.5282C56.695 10.8739 56.0252 11.1135 55.3295 11.2369C54.9586 11.2862 54.5815 11.2618 54.2201 11.1653C53.8588 11.0687 53.5203 10.9019 53.2242 10.6744C52.8167 10.3482 52.1602 9.36952 52.3413 8.87455Z" fill="#221F20"/>
<path fill-rule="evenodd" clip-rule="evenodd" d="M77.7629 12.3955C78.0459 12.1142 78.0006 11.9792 78.0006 11.563V10.4381C78.0006 8.95319 77.7176 6.4896 79.4494 6.11837C79.8229 6.02838 79.9135 6.34336 80.3888 6.25336C80.6692 6.00339 80.8797 5.68563 81.0001 5.33092C81.0001 4.62222 79.8682 4.48723 78.8382 4.94845C78.51 5.09469 78.2383 5.60091 78.0006 5.6459C78.0006 5.22968 78.0912 5.04969 77.8082 4.67847C77.4454 4.71304 77.0942 4.82427 76.7782 5.0047C76.3141 5.22968 76.2236 5.22968 76.3141 5.79214C76.4047 6.35461 76.3141 10.2131 76.3141 11.1355C76.3594 12.5417 76.3594 12.4967 77.7629 12.3955Z" fill="#221F20"/>
<path fill-rule="evenodd" clip-rule="evenodd" d="M22.5733 12.3504V12.2604C22.7047 11.1179 22.7388 9.9664 22.6752 8.81817C22.6752 7.92948 22.9016 6.48957 23.8863 6.20834C24.6786 5.92711 24.7239 6.66956 25.2445 6.20834C26.4556 4.94843 24.8257 4.44221 23.841 4.85843C22.8563 5.27465 22.9921 5.60088 22.7091 5.69088C22.6864 5.50783 22.6864 5.32271 22.7091 5.13966C22.7091 4.90343 22.6073 4.90343 22.5167 4.76844C22.1538 4.7655 21.7972 4.86287 21.4867 5.04967C21.0227 5.22966 20.8755 5.27466 21.0227 5.83712C21.1222 6.69955 21.1525 7.56849 21.1132 8.4357V11.0005C21.2151 12.3954 21.0227 12.4967 22.5733 12.3504Z" fill="#221F20"/>
<path fill-rule="evenodd" clip-rule="evenodd" d="M43.6826 13.8466C41.8141 14.0757 39.9769 14.5095 38.2044 15.1402C37.6498 15.3765 37.0726 15.5115 36.5179 15.7477C35.3861 16.1639 34.3221 16.5351 33.2016 16.9626C32.8281 17.0976 30.1569 17.885 29.6928 17.9863C27.4291 18.5375 24.0335 19.19 21.8716 18.2113C20.8417 17.7051 20.7398 19.28 23.0827 19.8424C24.4529 20.0809 25.8589 20.0195 27.2027 19.6624C28.3346 19.4262 29.6928 19.01 30.7681 18.6837C31.8434 18.3575 33.111 17.9863 34.2769 17.6601C34.5598 17.5588 34.7862 17.4688 35.1144 17.3788L36.8462 16.8614C37.1744 16.7714 37.4121 16.6364 37.6951 16.5351L39.4834 16.1189C39.8117 16.0289 40.0494 15.9389 40.3323 15.8377C42.7021 15.3352 45.1192 15.0863 47.5423 15.0952C48.1422 15.0952 49.0363 15.2415 49.6475 15.3315C50.7794 15.4665 50.5304 14.8702 49.7834 14.4878C47.841 13.7481 45.7376 13.527 43.6826 13.8466V13.8466Z" fill="#F9CC46"/>
</svg>
