<svg id="Layer_1" data-name="Layer 1" xmlns="http://www.w3.org/2000/svg" viewBox="0 0 18 18"><defs><style>.cls-1{fill-rule:evenodd;}</style></defs><title>Artboard 1</title><path class="cls-1" d="M5.22,0h7.56A5.22,5.22,0,0,1,18,5.22v7.56A5.22,5.22,0,0,1,12.78,18H5.22A5.22,5.22,0,0,1,0,12.78V5.22A5.22,5.22,0,0,1,5.22,0ZM5,1.8A3.24,3.24,0,0,0,1.8,5V13A3.24,3.24,0,0,0,5,16.2H13A3.24,3.24,0,0,0,16.2,13V5A3.24,3.24,0,0,0,13,1.8Zm9.81,2.47A1.13,1.13,0,1,0,13.73,5.4,1.12,1.12,0,0,0,14.85,4.27ZM9,4.5A4.5,4.5,0,1,1,4.5,9,4.51,4.51,0,0,1,9,4.5ZM6.3,9A2.7,2.7,0,1,1,9,11.7,2.7,2.7,0,0,1,6.3,9Z"/></svg>