<svg id="Layer_1" data-name="Layer 1" xmlns="http://www.w3.org/2000/svg" viewBox="0 0 32.03 41"><defs><style>.cls-1{fill:none;}</style></defs><title>Artboard 1</title><path class="cls-1" d="M18.62,17.4a4.94,4.94,0,0,0-3.15-.82,14.75,14.75,0,0,0-2.36.16v7.57a14.91,14.91,0,0,0,2,.11,5.57,5.57,0,0,0,3.56-1,3.92,3.92,0,0,0,1.28-3.12A3.39,3.39,0,0,0,18.62,17.4Zm-3.15,5.66a3.7,3.7,0,0,1-.61,0V18a4.14,4.14,0,0,1,.79-.06,2.21,2.21,0,0,1,2.43,2.44A2.39,2.39,0,0,1,15.47,23.06Z"/><polygon class="cls-1" points="20.96 24.34 22.71 24.34 22.71 21.24 25.48 21.24 25.48 19.82 22.71 19.82 22.71 18.06 25.67 18.06 25.67 16.64 20.96 16.64 20.96 24.34"/><path class="cls-1" d="M8.94,16.58a14.46,14.46,0,0,0-2.36.16h0v7.6H8.31V21.59a4.91,4.91,0,0,0,.59,0,3.6,3.6,0,0,0,2.51-.81,2.5,2.5,0,0,0,.7-1.83,2.23,2.23,0,0,0-.82-1.78A3.63,3.63,0,0,0,8.94,16.58Zm0,3.7a3,3,0,0,1-.58,0V18A3.1,3.1,0,0,1,9,17.89c.87,0,1.36.43,1.36,1.13S9.82,20.28,8.89,20.28Z"/><path d="M4.73,0A4.73,4.73,0,0,0,0,4.73V9.26L9.26,0Z"/><path d="M22.78,41H27.3A4.73,4.73,0,0,0,32,36.27V31.74Z"/><path d="M15.65,17.92a4.14,4.14,0,0,0-.79.06V23a3.7,3.7,0,0,0,.61,0,2.39,2.39,0,0,0,2.61-2.7A2.21,2.21,0,0,0,15.65,17.92Z"/><path d="M32,4.73A4.73,4.73,0,0,0,27.3,0H11.07L0,11.07v25.2A4.73,4.73,0,0,0,4.73,41H21L32,29.93ZM11.41,20.81a3.6,3.6,0,0,1-2.51.81,4.91,4.91,0,0,1-.59,0v2.75H6.58v-7.6h0a14.46,14.46,0,0,1,2.36-.16,3.63,3.63,0,0,1,2.35.62A2.23,2.23,0,0,1,12.11,19,2.5,2.5,0,0,1,11.41,20.81Zm7.24,2.62a5.57,5.57,0,0,1-3.56,1,14.91,14.91,0,0,1-2-.11V16.74a14.75,14.75,0,0,1,2.36-.16,4.94,4.94,0,0,1,3.15.82,3.39,3.39,0,0,1,1.31,2.91A3.92,3.92,0,0,1,18.65,23.43Zm7-5.37h-3v1.77h2.77v1.41H22.71v3.1H21v-7.7h4.71Z"/><path d="M9,17.89a3.1,3.1,0,0,0-.72.07v2.28a3,3,0,0,0,.58,0c.93,0,1.5-.47,1.5-1.26S9.9,17.89,9,17.89Z"/></svg>