<svg id="Layer_1" data-name="Layer 1" xmlns="http://www.w3.org/2000/svg" viewBox="0 0 19.3 11.01"><title>Artboard 1</title><path d="M17.2,7.6c-1.61-1.5-1.39-1.26.55-3.86C18.94,2.17,19.42,1.2,19.27.79s-1-.29-1-.29h-2.9A1,1,0,0,0,15,.58a.89.89,0,0,0-.25.31,17.63,17.63,0,0,1-1.06,2.27c-1.3,2.19-1.82,2.31-2,2.17-.47-.33-.37-1.27-.37-2,0-2.12.33-3-.63-3.24A4.85,4.85,0,0,0,9.28,0,6.58,6.58,0,0,0,6.87.24c-.33.17-.59.53-.43.55a1.3,1.3,0,0,1,.86.43,2.76,2.76,0,0,1,.29,1.31S7.76,5,7.16,5.34c-.37.21-.9-.22-2-2.21A17.61,17.61,0,0,1,4.07,1,.89.89,0,0,0,3.83.66.72.72,0,0,0,3.39.5H.63S.21.5.06.66s0,.47,0,.47,2.16,5,4.61,7.54a6.24,6.24,0,0,0,4.78,2.07h1.15a.65.65,0,0,0,.53-.12.62.62,0,0,0,.16-.39s0-1.55.69-1.78,1.62,1.5,2.59,2.16a1.81,1.81,0,0,0,1.28.39l2.58,0s1.34-.08.7-1.14A8.51,8.51,0,0,0,17.2,7.6Z"/></svg>