<svg id="Layer_1" data-name="Layer 1" xmlns="http://www.w3.org/2000/svg" viewBox="0 0 12.02 20"><defs><style>.cls-1{fill:none;}</style></defs><title>Artboard 1</title><ellipse class="cls-1" cx="6.01" cy="5.06" rx="2.5" ry="2.49"/><path d="M11.84,10.74c-.28-.57-1.07-1.05-2.12-.24A6.84,6.84,0,0,1,6,11.64,6.84,6.84,0,0,1,2.3,10.5c-1-.81-1.84-.33-2.12.24-.5,1,.06,1.49,1.33,2.3A8.54,8.54,0,0,0,5.05,14.1l-.8.8L4.18,15h0L1.26,17.88a1.14,1.14,0,0,0,0,1.62l.14.16a1.16,1.16,0,0,0,1.64,0l3-3c1.15,1.13,2.24,2.22,3,3H9a1.16,1.16,0,0,0,1.64,0l.13-.16a1.12,1.12,0,0,0,0-1.62l-3-3L7,14.09A8.35,8.35,0,0,0,10.51,13C11.78,12.23,12.34,11.74,11.84,10.74Z"/><path d="M6,10.12A5.06,5.06,0,1,0,1,5.06,5.05,5.05,0,0,0,6,10.12ZM6,2.57a2.49,2.49,0,1,1-2.5,2.49A2.5,2.5,0,0,1,6,2.57Z"/></svg>