<svg id="Layer_1" data-name="Layer 1" xmlns="http://www.w3.org/2000/svg" viewBox="0 0 20 20"><defs><style>.cls-1{fill:none;}</style></defs><title>Artboard 1</title><path class="cls-1" d="M15,13.21a1,1,0,0,0-.68.13c-.38.2-2,1.13-2,1.13l-.23.13-.23-.13a20.51,20.51,0,0,1-3.4-2.92A19.77,19.77,0,0,1,5.53,8.16l-.14-.23.13-.23s.94-1.63,1.14-2h0A1,1,0,0,0,6.79,5c-.1-.17-.73-1.12-1.34-2S4.21,1.1,4.13,1a.5.5,0,0,0-.2-.07.77.77,0,0,0-.49.14h0A17.39,17.39,0,0,0,1.91,2.36a7.57,7.57,0,0,0-.75.82,1.84,1.84,0,0,0-.23.41s0,0,0,0v0a6.46,6.46,0,0,0,.76,2.78,24.88,24.88,0,0,0,5.15,6.75,24.88,24.88,0,0,0,6.75,5.15,6.46,6.46,0,0,0,2.78.76h0s0,0,0,0a1.84,1.84,0,0,0,.39-.23,6.17,6.17,0,0,0,.83-.76,14.35,14.35,0,0,0,1.28-1.52h0a.63.63,0,0,0,.08-.69C18.79,15.72,15.3,13.4,15,13.21Z"/><path d="M19.53,15.13c-.35-.25-3.59-2.4-4.07-2.7a1.56,1.56,0,0,0-1.57.11c-.4.21-1.48.83-1.79,1a18.74,18.74,0,0,1-3-2.63,18.74,18.74,0,0,1-2.63-3c.17-.31.79-1.38,1-1.79a1.53,1.53,0,0,0,.1-1.58c-.13-.21-.74-1.13-1.35-2.05l0,0C5.58,1.52,5,.67,4.87.47h0A1.17,1.17,0,0,0,4,0a1.76,1.76,0,0,0-1.1.33A14.82,14.82,0,0,0,1.29,1.7a8.15,8.15,0,0,0-.86.94,1.54,1.54,0,0,0-.43,1A7.74,7.74,0,0,0,.84,6.82a26.31,26.31,0,0,0,5.34,7,26.31,26.31,0,0,0,7,5.34,7.74,7.74,0,0,0,3.17.84,1.54,1.54,0,0,0,1-.43,9.17,9.17,0,0,0,.94-.86,14.82,14.82,0,0,0,1.37-1.63A1.37,1.37,0,0,0,19.53,15.13Zm-.6,1.43h0a14.35,14.35,0,0,1-1.28,1.52,6.17,6.17,0,0,1-.83.76,1.84,1.84,0,0,1-.39.23s-.05,0,0,0h0a6.46,6.46,0,0,1-2.78-.76,24.88,24.88,0,0,1-6.75-5.15A24.88,24.88,0,0,1,1.67,6.43,6.46,6.46,0,0,1,.91,3.65v0s0,0,0,0a1.84,1.84,0,0,1,.23-.41,7.57,7.57,0,0,1,.75-.82A17.39,17.39,0,0,1,3.44,1.07h0A.77.77,0,0,1,3.93.93a.5.5,0,0,1,.2.07c.08.1.71,1,1.32,2S6.69,4.85,6.79,5a1,1,0,0,1-.13.67h0c-.2.38-1.14,2-1.14,2l-.13.23.14.23a19.77,19.77,0,0,0,2.91,3.39,20.51,20.51,0,0,0,3.4,2.92l.23.13.23-.13s1.63-.93,2-1.13a1,1,0,0,1,.68-.13c.31.19,3.8,2.51,4,2.66A.63.63,0,0,1,18.93,16.56Z"/></svg>