<svg id="Layer_1" data-name="Layer 1" xmlns="http://www.w3.org/2000/svg" viewBox="0 0 19.25 15.13"><defs><style>.cls-1{fill:none;}</style></defs><title>Artboard 1</title><circle class="cls-1" cx="9.63" cy="8.25" r="2.75"/><path class="cls-1" d="M17.19,2.75H12.83l-.48-1.06A.44.44,0,0,0,12,1.38H7.27c-.12,0-.27.08-.37.31L6.42,2.75H2.06a.68.68,0,0,0-.68.69v9.62a.68.68,0,0,0,.68.69H17.19a.69.69,0,0,0,.69-.69V3.44A.69.69,0,0,0,17.19,2.75ZM4.12,5.5H2.75V4.12H4.12Zm5.5,6.88a4.13,4.13,0,1,1,4.13-4.13A4.14,4.14,0,0,1,9.62,12.38Z"/><path d="M17.19,1.38H13.72l-.11-.25A1.83,1.83,0,0,0,12,0H7.27A1.83,1.83,0,0,0,5.64,1.13l-.11.25H2.06A2.06,2.06,0,0,0,0,3.44v9.62a2.06,2.06,0,0,0,2.06,2.06H17.19a2.06,2.06,0,0,0,2.06-2.06V3.44A2.06,2.06,0,0,0,17.19,1.38Zm.69,11.68a.69.69,0,0,1-.69.69H2.06a.68.68,0,0,1-.68-.69V3.44a.68.68,0,0,1,.68-.69H6.42L6.9,1.69c.1-.23.25-.31.37-.31H12a.44.44,0,0,1,.37.31l.48,1.06h4.36a.69.69,0,0,1,.69.69Z"/><path d="M9.62,4.12a4.13,4.13,0,1,0,4.13,4.13A4.14,4.14,0,0,0,9.62,4.12Zm0,6.88a2.75,2.75,0,1,1,2.76-2.75A2.74,2.74,0,0,1,9.62,11Z"/><rect x="2.75" y="4.13" width="1.38" height="1.38"/></svg>