
<svg xmlns="http://www.w3.org/2000/svg" viewBox="0 0 29 23"><path d="M27.39 21.56a5.07 5.07 0 001.61-4 6 6 0 00-1.22-3.92 4 4 0 00-3.32-1.5 5.51 5.51 0 00-1.22.11 8.64 8.64 0 011.44-5.19 11.1 11.1 0 014-3.32L25.9 0A13.91 13.91 0 0023 1.55a14.3 14.3 0 00-3.15 2.93A16.53 16.53 0 0017.32 9a17.1 17.1 0 00-1.05 6.3c0 2.58.64 4.51 1.94 5.8a6.81 6.81 0 005 1.94 6 6 0 004.18-1.48zm-16.26 0a5.06 5.06 0 001.6-4 6 6 0 00-1.22-3.92 4 4 0 00-3.32-1.5 5.58 5.58 0 00-1.19.13 8.64 8.64 0 011.41-5.19 11.1 11.1 0 014-3.32L9.63 0a13.91 13.91 0 00-2.88 1.55A14.52 14.52 0 003.6 4.48 16.53 16.53 0 001.05 9a17.1 17.1 0 00-1 6.3q0 3.87 1.94 5.8A6.81 6.81 0 007 23a6 6 0 004.13-1.44z" fill-rule="evenodd"/></svg>